<?xml version="1.0" encoding="utf-8"?>
<!-- Generator: Adobe Illustrator 23.0.4, SVG Export Plug-In . SVG Version: 6.00 Build 0)  -->
<svg version="1.1" id="Capa_1" xmlns="http://www.w3.org/2000/svg" xmlns:xlink="http://www.w3.org/1999/xlink" x="0px" y="0px"
	 viewBox="0 0 100 100" style="enable-background:new 0 0 100 100;" xml:space="preserve">
<style type="text/css">
	.st0{fill:url(#Trazado_1506_1_);}
	.st1{fill:url(#Trazado_1507_1_);}
	.st2{fill:#FFFFFF;stroke:#FF0033;stroke-miterlimit:10;}
	.st3{fill:#575A5E;}
	.st4{fill:url(#Trazado_1494_1_);}
	.st5{fill:url(#Trazado_1495_1_);}
	.st6{fill:none;stroke:#FF0033;stroke-width:0.25;stroke-miterlimit:10;}
	.st7{fill:none;stroke:#FF0033;stroke-width:0.5;stroke-miterlimit:10;}
	.st8{fill:url(#Trazado_1494_4_);}
	.st9{fill:url(#Trazado_1495_4_);}
	.st10{fill:url(#Trazado_1491_1_);}
	.st11{fill:none;stroke:#515150;stroke-miterlimit:10;}
	.st12{fill:#FF0033;}
	.st13{fill:#FF0033;stroke:#FF0033;stroke-width:0.25;stroke-miterlimit:10;}
	.st14{fill:#575A5E;stroke:#575A5E;stroke-width:0.25;stroke-miterlimit:10;}
	.st15{fill:none;stroke:#FF0033;stroke-linecap:round;stroke-linejoin:round;stroke-dasharray:1,2;}
	.st16{fill:none;stroke:#515150;stroke-linecap:round;stroke-linejoin:round;}
	.st17{fill:none;stroke:#FF0033;stroke-linecap:round;stroke-linejoin:round;}
</style>
<g id="Grupo_9_3_" transform="translate(0.5 0.5)">
	
		<linearGradient id="Trazado_1494_1_" gradientUnits="userSpaceOnUse" x1="139.6523" y1="-147.3465" x2="203.2485" y2="-147.3465" gradientTransform="matrix(1.5662 0 0 -1.575 -137.7842 -182.4968)">
		<stop  offset="2.000000e-03" style="stop-color:#DDD6CD"/>
		<stop  offset="0.287" style="stop-color:#DB9191"/>
		<stop  offset="0.632" style="stop-color:#DA434F"/>
		<stop  offset="0.878" style="stop-color:#D91225"/>
		<stop  offset="1" style="stop-color:#D90015"/>
	</linearGradient>
	<path id="Trazado_1494_3_" class="st4" d="M81.8,48.3c-0.7,0-1.2,0.5-1.2,1.2c0,0,0,0,0,0c0,0.5,0.3,0.9,0.7,1.1
		c0.2,0.1,0.3,0.1,0.5,0.1c0.7,0,1.2-0.5,1.2-1.2c0,0,0,0,0,0C83,48.9,82.5,48.3,81.8,48.3z"/>
	
		<linearGradient id="Trazado_1495_1_" gradientUnits="userSpaceOnUse" x1="133.5567" y1="-147.6273" x2="196.624" y2="-147.6273" gradientTransform="matrix(1.5817 0 0 -1.5732 -131.9916 -182.6827)">
		<stop  offset="2.000000e-03" style="stop-color:#DDD6CD"/>
		<stop  offset="0.287" style="stop-color:#DB9191"/>
		<stop  offset="0.632" style="stop-color:#DA434F"/>
		<stop  offset="0.878" style="stop-color:#D91225"/>
		<stop  offset="1" style="stop-color:#D90015"/>
	</linearGradient>
	<path id="Trazado_1495_3_" class="st5" d="M88.4,48.3c-0.7,0-1.2,0.6-1.2,1.3c0,0.5,0.3,0.9,0.7,1.1c0.2,0.1,0.3,0.1,0.5,0.1
		c0.7,0,1.3-0.6,1.3-1.2C89.7,48.9,89.1,48.3,88.4,48.3z"/>
	<ellipse id="Elipse_646_3_" class="st2" cx="49.5" cy="49.6" rx="47.5" ry="47.5"/>
	<path id="Trazado_1496_3_" class="st3" d="M42.8,71.4L40.9,71c1.9-10.2-2.2-16.3-2.3-16.3c-0.2-0.3-0.2-0.8,0-1.1
		c1.4-2.2,1.3-11.2,0.2-12.2c-0.7-0.5-1.6-0.6-2.3-0.3c-0.6,0.2-1,0.8-1.1,1.4c-0.4,1.7-0.8,3.3-1.4,4.9c-0.8,2.2-1.5,4.5-2,6.8
		c-0.4,2.5-0.7,5.1-0.6,7.7c0,0.2-0.1,0.5-0.2,0.7l-3.7,4.2L26,65.4l3.5-3.9c0-2.6,0.2-5.1,0.7-7.7c0.5-2.4,1.2-4.7,2-7
		c0.6-1.5,1-3,1.3-4.6c0.2-1.3,1-2.4,2.3-2.9c1.4-0.6,3-0.4,4.2,0.5c2.3,1.6,2,11,0.5,14.2C41.5,55.8,44.5,61.9,42.8,71.4z"/>
	<path id="Trazado_1497_3_" class="st3" d="M40.6,80.1l-1.4-1.3l3.6-3.8l0.5,0.1c2.3,0.4,4.7,0,6.9-0.9c3.3-1.6,5-2.9,5.6-5.3
		l1.9,0.5c-0.8,3.1-3,4.7-6.6,6.5c-2.4,1.1-5,1.5-7.6,1.2L40.6,80.1z"/>
	<path id="Trazado_1498_3_" class="st3" d="M66,61.5c-0.5,0-1-0.4-1-1c0-0.5,0.4-0.9,0.9-1l2.6-0.2c1-0.1,1.7-1,1.6-1.9
		c-0.1-0.9-0.9-1.6-1.8-1.6l-1.7,0.1c-0.5,0-1-0.4-1-0.9c0-0.5,0.4-1,0.9-1l1.7-0.1c2-0.2,3.8,1.4,4,3.4c0.2,2-1.4,3.8-3.4,4l0,0
		L66,61.5L66,61.5z"/>
	<path id="Trazado_1499_3_" class="st3" d="M66,56.2c-0.5,0-1-0.4-1-1c0-0.5,0.4-0.9,0.9-1l2.2-0.1c1-0.1,1.7-1,1.6-1.9
		c-0.1-0.9-0.9-1.6-1.9-1.6l-1.7,0.1c-0.5,0-1-0.4-1-0.9c0-0.5,0.4-1,0.9-1l1.7-0.1c2-0.2,3.8,1.4,4,3.4c0.2,2-1.4,3.8-3.4,4
		L66,56.2L66,56.2z"/>
	<path id="Trazado_1500_3_" class="st3" d="M66.1,50.8c-0.5,0-1-0.5-1-1c0-0.5,0.4-0.9,0.9-0.9l1.7-0.1c1-0.1,1.7-1,1.6-1.9
		c-0.1-0.9-0.9-1.6-1.8-1.6l-1.3,0.1c-0.5,0-1-0.4-1-0.9c0-0.5,0.4-1,0.9-1l0,0l1.3-0.1c2-0.2,3.8,1.4,4,3.4s-1.4,3.8-3.4,4l0,0
		L66.1,50.8L66.1,50.8z"/>
	<path id="Trazado_1501_3_" class="st3" d="M66,43.5c-0.5,0-1-0.4-1-1c0-0.3,0.1-0.6,0.4-0.8l5-3.7c0.7-0.6,0.8-1.7,0.2-2.5
		c-0.6-0.7-1.7-0.8-2.4-0.2l-1.5,1.4c-0.4,0.4-1,0.3-1.4-0.1c-0.4-0.4-0.3-1,0.1-1.4l0,0l1.6-1.4c1.6-1.3,3.9-1.1,5.2,0.5
		c1.3,1.6,1.1,3.9-0.5,5.2l-5,3.7C66.4,43.4,66.2,43.5,66,43.5z"/>
	<path id="Trazado_1502_3_" class="st3" d="M67.3,61.1h-1.9V25.5c-0.1-1.4-1.3-2.4-2.7-2.3h-20c-1.4-0.1-2.6,0.9-2.7,2.3V41H38V25.5
		c0.1-2.4,2.2-4.3,4.6-4.2h20c2.4-0.1,4.5,1.8,4.6,4.2L67.3,61.1z"/>
	<path id="Trazado_1503_3_" class="st3" d="M62.6,70.2H42v-1.9h20.6c1.4,0.1,2.6-0.9,2.7-2.3v-5.7h1.9V66
		C67.1,68.4,65,70.3,62.6,70.2z"/>
	<path id="Trazado_1504_3_" class="st3" d="M66.2,28.5H39.1c-0.5,0-1-0.4-1-1c0-0.5,0.4-1,1-1h27.1c0.5,0,1,0.4,1,1
		C67.1,28.1,66.7,28.5,66.2,28.5z"/>
	<path id="Trazado_1505_3_" class="st3" d="M66.3,64.8H42.2c-0.5,0-1-0.4-1-1c0-0.5,0.4-1,1-1h24.1c0.5,0,1,0.4,1,1
		C67.3,64.4,66.8,64.8,66.3,64.8L66.3,64.8z"/>
	<ellipse id="Elipse_647_3_" class="st6" cx="52.7" cy="50.4" rx="6.7" ry="6.7"/>
	<ellipse id="Elipse_648_3_" class="st7" cx="52.7" cy="50.4" rx="5" ry="5"/>
</g>
<g id="Grupo_9_2_" transform="translate(0.5 0.5)">
	
		<linearGradient id="Trazado_1494_4_" gradientUnits="userSpaceOnUse" x1="139.6523" y1="-147.3465" x2="203.2485" y2="-147.3465" gradientTransform="matrix(1.5662 0 0 -1.575 -137.7842 -182.4968)">
		<stop  offset="2.000000e-03" style="stop-color:#DDD6CD"/>
		<stop  offset="0.287" style="stop-color:#DB9191"/>
		<stop  offset="0.632" style="stop-color:#DA434F"/>
		<stop  offset="0.878" style="stop-color:#D91225"/>
		<stop  offset="1" style="stop-color:#D90015"/>
	</linearGradient>
	<path id="Trazado_1494_2_" class="st8" d="M81.8,48.3c-0.7,0-1.2,0.5-1.2,1.2c0,0,0,0,0,0c0,0.5,0.3,0.9,0.7,1.1
		c0.2,0.1,0.3,0.1,0.5,0.1c0.7,0,1.2-0.5,1.2-1.2c0,0,0,0,0,0C83,48.9,82.5,48.3,81.8,48.3z"/>
	
		<linearGradient id="Trazado_1495_4_" gradientUnits="userSpaceOnUse" x1="133.5567" y1="-147.6273" x2="196.624" y2="-147.6273" gradientTransform="matrix(1.5817 0 0 -1.5732 -131.9916 -182.6827)">
		<stop  offset="2.000000e-03" style="stop-color:#DDD6CD"/>
		<stop  offset="0.287" style="stop-color:#DB9191"/>
		<stop  offset="0.632" style="stop-color:#DA434F"/>
		<stop  offset="0.878" style="stop-color:#D91225"/>
		<stop  offset="1" style="stop-color:#D90015"/>
	</linearGradient>
	<path id="Trazado_1495_2_" class="st9" d="M88.4,48.3c-0.7,0-1.2,0.6-1.2,1.3c0,0.5,0.3,0.9,0.7,1.1c0.2,0.1,0.3,0.1,0.5,0.1
		c0.7,0,1.3-0.6,1.3-1.2C89.7,48.9,89.1,48.3,88.4,48.3z"/>
	<ellipse id="Elipse_646_2_" class="st2" cx="49.5" cy="49.6" rx="47.5" ry="47.5"/>
	<path id="Trazado_1496_2_" class="st3" d="M42.8,71.4L40.9,71c1.9-10.2-2.2-16.3-2.3-16.3c-0.2-0.3-0.2-0.8,0-1.1
		c1.4-2.2,1.3-11.2,0.2-12.2c-0.7-0.5-1.6-0.6-2.3-0.3c-0.6,0.2-1,0.8-1.1,1.4c-0.4,1.7-0.8,3.3-1.4,4.9c-0.8,2.2-1.5,4.5-2,6.8
		c-0.4,2.5-0.7,5.1-0.6,7.7c0,0.2-0.1,0.5-0.2,0.7l-3.7,4.2L26,65.4l3.5-3.9c0-2.6,0.2-5.1,0.7-7.7c0.5-2.4,1.2-4.7,2-7
		c0.6-1.5,1-3,1.3-4.6c0.2-1.3,1-2.4,2.3-2.9c1.4-0.6,3-0.4,4.2,0.5c2.3,1.6,2,11,0.5,14.2C41.5,55.8,44.5,61.9,42.8,71.4z"/>
	<path id="Trazado_1497_2_" class="st3" d="M40.6,80.1l-1.4-1.3l3.6-3.8l0.5,0.1c2.3,0.4,4.7,0,6.9-0.9c3.3-1.6,5-2.9,5.6-5.3
		l1.9,0.5c-0.8,3.1-3,4.7-6.6,6.5c-2.4,1.1-5,1.5-7.6,1.2L40.6,80.1z"/>
	<path id="Trazado_1498_2_" class="st3" d="M66,61.5c-0.5,0-1-0.4-1-1c0-0.5,0.4-0.9,0.9-1l2.6-0.2c1-0.1,1.7-1,1.6-1.9
		c-0.1-0.9-0.9-1.6-1.8-1.6l-1.7,0.1c-0.5,0-1-0.4-1-0.9c0-0.5,0.4-1,0.9-1l1.7-0.1c2-0.2,3.8,1.4,4,3.4c0.2,2-1.4,3.8-3.4,4l0,0
		L66,61.5L66,61.5z"/>
	<path id="Trazado_1499_2_" class="st3" d="M66,56.2c-0.5,0-1-0.4-1-1c0-0.5,0.4-0.9,0.9-1l2.2-0.1c1-0.1,1.7-1,1.6-1.9
		c-0.1-0.9-0.9-1.6-1.9-1.6l-1.7,0.1c-0.5,0-1-0.4-1-0.9c0-0.5,0.4-1,0.9-1l1.7-0.1c2-0.2,3.8,1.4,4,3.4c0.2,2-1.4,3.8-3.4,4
		L66,56.2L66,56.2z"/>
	<path id="Trazado_1500_2_" class="st3" d="M66.1,50.8c-0.5,0-1-0.5-1-1c0-0.5,0.4-0.9,0.9-0.9l1.7-0.1c1-0.1,1.7-1,1.6-1.9
		c-0.1-0.9-0.9-1.6-1.8-1.6l-1.3,0.1c-0.5,0-1-0.4-1-0.9c0-0.5,0.4-1,0.9-1l0,0l1.3-0.1c2-0.2,3.8,1.4,4,3.4s-1.4,3.8-3.4,4l0,0
		L66.1,50.8L66.1,50.8z"/>
	<path id="Trazado_1501_2_" class="st3" d="M66,43.5c-0.5,0-1-0.4-1-1c0-0.3,0.1-0.6,0.4-0.8l5-3.7c0.7-0.6,0.8-1.7,0.2-2.5
		c-0.6-0.7-1.7-0.8-2.4-0.2l-1.5,1.4c-0.4,0.4-1,0.3-1.4-0.1c-0.4-0.4-0.3-1,0.1-1.4l0,0l1.6-1.4c1.6-1.3,3.9-1.1,5.2,0.5
		c1.3,1.6,1.1,3.9-0.5,5.2l-5,3.7C66.4,43.4,66.2,43.5,66,43.5z"/>
	<path id="Trazado_1502_2_" class="st3" d="M67.3,61.1h-1.9V25.5c-0.1-1.4-1.3-2.4-2.7-2.3h-20c-1.4-0.1-2.6,0.9-2.7,2.3V41H38V25.5
		c0.1-2.4,2.2-4.3,4.6-4.2h20c2.4-0.1,4.5,1.8,4.6,4.2L67.3,61.1z"/>
	<path id="Trazado_1503_2_" class="st3" d="M62.6,70.2H42v-1.9h20.6c1.4,0.1,2.6-0.9,2.7-2.3v-5.7h1.9V66
		C67.1,68.4,65,70.3,62.6,70.2z"/>
	<path id="Trazado_1504_2_" class="st3" d="M66.2,28.5H39.1c-0.5,0-1-0.4-1-1c0-0.5,0.4-1,1-1h27.1c0.5,0,1,0.4,1,1
		C67.1,28.1,66.7,28.5,66.2,28.5z"/>
	<path id="Trazado_1505_2_" class="st3" d="M66.3,64.8H42.2c-0.5,0-1-0.4-1-1c0-0.5,0.4-1,1-1h24.1c0.5,0,1,0.4,1,1
		C67.3,64.4,66.8,64.8,66.3,64.8L66.3,64.8z"/>
	<ellipse id="Elipse_647_2_" class="st6" cx="52.7" cy="50.4" rx="6.7" ry="6.7"/>
	<ellipse id="Elipse_648_2_" class="st7" cx="52.7" cy="50.4" rx="5" ry="5"/>
</g>
</svg>
