<?xml version="1.0" encoding="utf-8"?>
<!-- Generator: Adobe Illustrator 23.0.4, SVG Export Plug-In . SVG Version: 6.00 Build 0)  -->
<svg version="1.1" id="Capa_1" xmlns="http://www.w3.org/2000/svg" xmlns:xlink="http://www.w3.org/1999/xlink" x="0px" y="0px"
	 viewBox="0 0 100 100" style="enable-background:new 0 0 100 100;" xml:space="preserve">
<style type="text/css">
	.st0{fill:url(#Trazado_1506_1_);}
	.st1{fill:url(#Trazado_1507_1_);}
	.st2{fill:#FFFFFF;stroke:#FF0033;stroke-miterlimit:10;}
	.st3{fill:#575A5E;}
	.st4{fill:url(#Trazado_1494_1_);}
	.st5{fill:url(#Trazado_1495_1_);}
	.st6{fill:none;stroke:#FF0033;stroke-width:0.25;stroke-miterlimit:10;}
	.st7{fill:none;stroke:#FF0033;stroke-width:0.5;stroke-miterlimit:10;}
	.st8{fill:url(#Trazado_1494_4_);}
	.st9{fill:url(#Trazado_1495_4_);}
	.st10{fill:url(#Trazado_1491_1_);}
	.st11{fill:none;stroke:#515150;stroke-miterlimit:10;}
	.st12{fill:#FF0033;}
	.st13{fill:#FF0033;stroke:#FF0033;stroke-width:0.25;stroke-miterlimit:10;}
	.st14{fill:#575A5E;stroke:#575A5E;stroke-width:0.25;stroke-miterlimit:10;}
	.st15{fill:none;stroke:#FF0033;stroke-linecap:round;stroke-linejoin:round;stroke-dasharray:1,2;}
	.st16{fill:none;stroke:#515150;stroke-linecap:round;stroke-linejoin:round;}
	.st17{fill:none;stroke:#FF0033;stroke-linecap:round;stroke-linejoin:round;}
</style>
<g id="Grupo_11_1_" transform="translate(0.5 0.5)">
	<ellipse id="Elipse_650_1_" class="st2" cx="49.5" cy="49.6" rx="47.5" ry="47.5"/>
	<path id="Trazado_1512_1_" class="st13" d="M53.9,31.9l-1-3.7c-0.4-1.4-1.6-2.3-3-2.3h-2.2c-1.4,0-2.7,1-3,2.3l-1,3.8h-0.1
		c0.5,0.5,0.9,1,1.3,1.6h7.7C52.8,32.9,53.3,32.4,53.9,31.9z M46.1,28.6c0.2-0.7,0.8-1.2,1.5-1.2h2.2c0.7,0,1.3,0.5,1.5,1.2l0.9,3.4
		h-7.1L46.1,28.6z"/>
	<path id="Trazado_1513_1_" class="st13" d="M48.7,23.9c0.4,0,0.8-0.4,0.8-0.8v-4.4c0.1-0.4-0.3-0.8-0.7-0.9s-0.8,0.3-0.9,0.7
		c0,0.1,0,0.1,0,0.2v4.4C47.9,23.6,48.3,23.9,48.7,23.9z"/>
	<path id="Trazado_1514_1_" class="st13" d="M53.8,25.2c0.2,0,0.4-0.1,0.5-0.2l3.2-3c0.3-0.3,0.2-0.8-0.1-1.1c-0.3-0.2-0.7-0.2-1,0
		l-3.2,3c-0.3,0.3-0.3,0.8,0,1.1C53.4,25.1,53.6,25.2,53.8,25.2z"/>
	<path id="Trazado_1515_1_" class="st13" d="M43.1,25c0.3,0.3,0.8,0.4,1.1,0.1c0.3-0.3,0.4-0.8,0.1-1.1c0,0-0.1-0.1-0.1-0.1l-3.2-3
		c-0.4-0.3-0.8-0.2-1.1,0.2c-0.2,0.3-0.2,0.7,0,1L43.1,25z"/>
	<path id="Trazado_1516_1_" class="st13" d="M39.9,41.2h-2.4v-2.4c0.1-0.4-0.3-0.8-0.7-0.9c-0.4-0.1-0.8,0.3-0.9,0.7
		c0,0.1,0,0.1,0,0.2v2.4h-2.4c-0.4-0.1-0.8,0.2-0.9,0.7s0.2,0.8,0.7,0.9c0.1,0,0.1,0,0.2,0h2.4v2.4c-0.1,0.4,0.3,0.8,0.7,0.9
		c0.4,0.1,0.8-0.3,0.9-0.7c0-0.1,0-0.1,0-0.2v-2.4h2.4c0.4,0.1,0.8-0.2,0.9-0.7s-0.2-0.8-0.7-0.9C40,41.2,39.9,41.2,39.9,41.2z"/>
	<path id="Trazado_1517_1_" class="st14" d="M77.8,56.6c-0.1-1.7-0.4-3.4-0.7-5.1c-0.3-1.6-0.8-3.2-1.3-4.7
		c-1.4-4.1-3.9-7.9-7.1-10.8l0,0c-0.9-0.8-1.8-1.5-2.8-2.2c-2.2-1.5-4.8-2.2-7.4-2.2H45.2c0,0-0.5,0-0.8,0s-0.9,0-0.9,0H31.1
		c-2.8,0-5,2.3-5,5v24c0,1.3,1.1,2.4,2.4,2.4h4.1c0.4,3,3.2,5.1,6.2,4.7c2.4-0.3,4.3-2.2,4.7-4.7h15.9c0.4,3,3.2,5.1,6.2,4.7
		c2.4-0.3,4.3-2.2,4.7-4.7h5.3c1.3,0,2.3-1,2.4-2.3C78,59.3,77.9,58,77.8,56.6z M76.2,55.9h-3.5l-1.6-3.4h4.6
		C75.9,53.6,76.1,54.7,76.2,55.9L76.2,55.9z M73.9,46.3H62.8l-0.1-7.2h7C71.5,41.2,73,43.6,73.9,46.3L73.9,46.3z M38,66.1
		c-2.2,0-3.9-1.8-3.9-3.9c0-2.2,1.8-3.9,3.9-3.9c2.2,0,3.9,1.8,3.9,3.9c0,0,0,0,0,0C41.9,64.3,40.1,66.1,38,66.1z M64.8,66.1
		c-2.2,0-3.9-1.8-3.9-3.9c0-2.2,1.8-3.9,3.9-3.9c2.2,0,3.9,1.8,3.9,3.9c0,0,0,0,0,0C68.7,64.3,66.9,66.1,64.8,66.1L64.8,66.1z
		 M76.3,60.6c0,0.4-0.4,0.8-0.8,0.8h-5.3c-0.4-3-3.2-5.1-6.2-4.7c-2.4,0.3-4.3,2.2-4.7,4.7H43.4c-0.4-3-3.2-5.1-6.2-4.7
		c-2.4,0.3-4.3,2.2-4.7,4.7h-4.1c-0.4,0-0.8-0.3-0.8-0.8v-24c0-1.9,1.6-3.5,3.5-3.5h27.4c2.3,0,4.6,0.7,6.5,1.9
		c1.1,0.8,2.1,1.6,3,2.5h-6.2c-0.4,0-0.8,0.4-0.8,0.8l0.1,8.7c0,0.4,0.4,0.8,0.8,0.8h12.5c0.3,1,0.6,2,0.9,3.1h-5.4
		c-0.4,0-0.8,0.4-0.8,0.8c0,0.1,0,0.2,0.1,0.3l2.4,5c0.1,0.3,0.4,0.5,0.7,0.4h4.1C76.4,58.5,76.4,59.6,76.3,60.6L76.3,60.6z"/>
	<path id="Trazado_1518_1_" class="st14" d="M45.6,48h10.2c0.4,0,0.8-0.4,0.8-0.8v-8.7c0-0.4-0.4-0.8-0.8-0.8H45.6
		c-0.4,0-0.8,0.4-0.8,0.8v8.7C44.8,47.6,45.1,48,45.6,48z M46.4,39.3H55v7.2h-8.6L46.4,39.3z"/>
	<path id="Trazado_1519_1_" class="st14" d="M58.1,55.8H44.7c-0.4,0.1-0.7,0.5-0.7,0.9c0,0.4,0.3,0.6,0.7,0.7h13.4
		c0.4,0.1,0.8-0.2,0.9-0.7s-0.2-0.8-0.7-0.9C58.2,55.7,58.1,55.7,58.1,55.8L58.1,55.8z"/>
</g>
</svg>
