<?xml version="1.0" encoding="utf-8"?>
<!-- Generator: Adobe Illustrator 23.0.4, SVG Export Plug-In . SVG Version: 6.00 Build 0)  -->
<svg version="1.1" id="Capa_1" xmlns="http://www.w3.org/2000/svg" xmlns:xlink="http://www.w3.org/1999/xlink" x="0px" y="0px"
	 viewBox="0 0 100 100" style="enable-background:new 0 0 100 100;" xml:space="preserve">
<style type="text/css">
	.st0{fill:url(#Trazado_1506_1_);}
	.st1{fill:url(#Trazado_1507_1_);}
	.st2{fill:#FFFFFF;stroke:#FF0033;stroke-miterlimit:10;}
	.st3{fill:#575A5E;}
	.st4{fill:url(#Trazado_1494_1_);}
	.st5{fill:url(#Trazado_1495_1_);}
	.st6{fill:none;stroke:#FF0033;stroke-width:0.25;stroke-miterlimit:10;}
	.st7{fill:none;stroke:#FF0033;stroke-width:0.5;stroke-miterlimit:10;}
	.st8{fill:url(#Trazado_1494_4_);}
	.st9{fill:url(#Trazado_1495_4_);}
	.st10{fill:url(#Trazado_1491_1_);}
	.st11{fill:none;stroke:#515150;stroke-miterlimit:10;}
	.st12{fill:#FF0033;}
	.st13{fill:#FF0033;stroke:#FF0033;stroke-width:0.25;stroke-miterlimit:10;}
	.st14{fill:#575A5E;stroke:#575A5E;stroke-width:0.25;stroke-miterlimit:10;}
	.st15{fill:none;stroke:#FF0033;stroke-linecap:round;stroke-linejoin:round;stroke-dasharray:1,2;}
	.st16{fill:none;stroke:#515150;stroke-linecap:round;stroke-linejoin:round;}
	.st17{fill:none;stroke:#FF0033;stroke-linecap:round;stroke-linejoin:round;}
</style>
<g id="Grupo_8_2_" transform="translate(0.5 0.5)">
	
		<linearGradient id="Trazado_1491_1_" gradientUnits="userSpaceOnUse" x1="101.7243" y1="-147.3441" x2="165.3204" y2="-147.3441" gradientTransform="matrix(1.5672 0 0 -1.575 -78.4146 -182.4952)">
		<stop  offset="2.000000e-03" style="stop-color:#DDD6CD"/>
		<stop  offset="0.287" style="stop-color:#DB9191"/>
		<stop  offset="0.632" style="stop-color:#DA434F"/>
		<stop  offset="0.878" style="stop-color:#D91225"/>
		<stop  offset="1" style="stop-color:#D90015"/>
	</linearGradient>
	<path id="Trazado_1491_2_" class="st10" d="M81.9,48.3c-0.7,0-1.2,0.6-1.2,1.2c0,0,0,0,0,0c0,0.5,0.3,0.9,0.7,1.1
		c0.2,0.1,0.3,0.1,0.5,0.1c0.7,0,1.2-0.5,1.2-1.2c0,0,0,0,0,0C83.1,48.9,82.6,48.3,81.9,48.3z"/>
	<ellipse id="Elipse_645_2_" class="st2" cx="49.5" cy="49.6" rx="47.5" ry="47.5"/>
	<path id="Trazado_1492_2_" class="st11" d="M49.5,24.3c-10,0-19.8,7.6-19.8,19.1c0,18.6,19.8,32.1,19.8,32.1s19.8-12.9,19.8-32.1
		C69.3,31,58.9,24.3,49.5,24.3z"/>
	<path id="Trazado_1493_2_" class="st12" d="M46.7,62.8c-0.1-1.5,1.1-2.9,2.6-3c0.1,0,0.1,0,0.2,0c1.6,0.1,2.9,1.5,2.8,3.1
		c-0.1,1.5-1.3,2.8-2.8,2.8c-1.6,0-2.8-1.2-2.8-2.8C46.7,62.9,46.7,62.9,46.7,62.8z M47.9,56l-0.7-23h4.6l-0.7,23H47.9z"/>
</g>
</svg>
